<svg xmlns="http://www.w3.org/2000/svg" viewBox="0 0 512 512" role="img" aria-labelledby="title desc">
  <title id="title">STEPQUEST</title>
  <desc id="desc">A small doorway with a path and star.</desc>
  <rect width="512" height="512" rx="96" fill="#17211d"/>
  <path d="M96 390c72-46 142-69 210-69 43 0 80 9 110 27v58H96z" fill="#7fc7a4"/>
  <path d="M151 361V161c0-39 31-70 70-70h70c39 0 70 31 70 70v200h-72V174c0-15-12-27-27-27h-12c-15 0-27 12-27 27v187z" fill="#f4f1e8"/>
  <path d="M191 361V176c0-20 16-36 36-36h58c20 0 36 16 36 36v185z" fill="#2d2432"/>
  <circle cx="287" cy="259" r="9" fill="#f2c166"/>
  <path d="M365 102l13 32 34 3-26 22 8 34-29-18-29 18 8-34-26-22 34-3z" fill="#ffd166"/>
  <path d="M135 406c29-32 64-55 105-69" fill="none" stroke="#f2c166" stroke-width="18" stroke-linecap="round"/>
</svg>
